<?xml version="1.0" encoding="UTF-8"?>
<svg xmlns="http://www.w3.org/2000/svg" version="1.1" xmlns:xlink="http://www.w3.org/1999/xlink" viewBox="0 0 1080 1080">
  <!-- Generator: Adobe Illustrator 29.7.1, SVG Export Plug-In . SVG Version: 2.1.1 Build 8)  -->
  <defs>
    <style>
      .st0 {
        fill: #b83427;
      }

      .st1 {
        fill: #fff;
      }

      .st2 {
        fill: url(#Degradado_sin_nombre_103);
      }

      .st3 {
        fill: none;
      }

      .st4 {
        fill: #e41e2f;
      }

      .st5 {
        mix-blend-mode: multiply;
        opacity: .2;
      }

      .st6 {
        fill: #f4e634;
      }

      .st7 {
        fill: url(#Degradado_sin_nombre_104);
      }

      .st8 {
        clip-path: url(#clippath-1);
      }

      .st9 {
        isolation: isolate;
      }

      .st10 {
        fill: #93c021;
      }

      .st11 {
        clip-path: url(#clippath-3);
      }

      .st12 {
        fill: #4a4a49;
      }

      .st13 {
        fill: #2e5285;
      }

      .st14 {
        fill: url(#Degradado_sin_nombre_10);
      }

      .st15 {
        clip-path: url(#clippath-2);
      }

      .st16 {
        clip-path: url(#clippath);
      }

      .st17 {
        fill: url(#Degradado_sin_nombre_31);
      }
    </style>
    <linearGradient id="Degradado_sin_nombre_31" data-name="Degradado sin nombre 31" x1="105.99" y1="519.18" x2="296.82" y2="519.18" gradientUnits="userSpaceOnUse">
      <stop offset="0" stop-color="#fbc203"/>
      <stop offset=".33" stop-color="#eb6835"/>
      <stop offset=".66" stop-color="#dd0a14"/>
      <stop offset="1" stop-color="#02509d"/>
    </linearGradient>
    <clipPath id="clippath">
      <path class="st3" d="M338.84,218.37l-16.52,77.18c-1.82,8.43-5.28,14.74-10.4,18.95-5.12,4.21-11.5,6.32-19.15,6.32-12.18,0-18.27-5.7-18.27-17.11,0-2.46.32-5.18.97-8.16l16.72-77.18h-42.57l-16.53,77.18c-1.17,5.19-1.75,10.3-1.75,15.36,0,13.74,4.5,24.88,13.51,33.44,9.01,8.55,22.65,12.83,40.92,12.83,13.35,0,25.5-2.5,36.45-7.49,10.95-4.99,20.05-12.11,27.31-21.38,7.26-9.26,12.18-20.18,14.78-32.76l16.52-77.18h-41.99Z"/>
    </clipPath>
    <linearGradient id="Degradado_sin_nombre_103" data-name="Degradado sin nombre 103" x1="-959.66" y1="1904.63" x2="-958.48" y2="1904.63" gradientTransform="translate(119138.23 236277.86) scale(123.9 -123.9)" gradientUnits="userSpaceOnUse">
      <stop offset="0" stop-color="#dd0a14"/>
      <stop offset=".4" stop-color="#e42322"/>
      <stop offset="1" stop-color="#306eb5"/>
    </linearGradient>
    <clipPath id="clippath-1">
      <rect class="st3" x="231.33" y="218.37" width="149.49" height="138.8"/>
    </clipPath>
    <clipPath id="clippath-2">
      <path class="st3" d="M244.84,344.34c-9.01-8.55-13.51-19.7-13.51-33.44,0-5.05.58-10.17,1.75-15.36l16.53-77.18h42.57l-16.72,77.18c-.65,2.98-.97,5.7-.97,8.16,0,11.41,6.09,17.11,18.27,17.11,7.65,0,14.03-2.11,19.15-6.32,5.12-4.21,8.58-10.53,10.4-18.95l16.52-77.18h41.99l-16.52,77.18c-2.59,12.57-7.52,23.49-14.77,32.76-7.26,9.27-16.36,16.4-27.31,21.38-10.95,4.99-23.1,7.49-36.45,7.49-18.27,0-31.91-4.28-40.92-12.83"/>
    </clipPath>
    <linearGradient id="Degradado_sin_nombre_104" data-name="Degradado sin nombre 104" x1="-982.77" y1="1915.1" x2="-981.6" y2="1915.1" gradientTransform="translate(-120267.34 -234814.24) rotate(-180) scale(122.76 -122.76)" gradientUnits="userSpaceOnUse">
      <stop offset="0" stop-color="#fff"/>
      <stop offset=".55" stop-color="#fff"/>
      <stop offset=".91" stop-color="#000"/>
      <stop offset="1" stop-color="#000"/>
    </linearGradient>
    <clipPath id="clippath-3">
      <path class="st3" d="M249.61,218.37l-16.53,77.18c-1.17,5.19-1.75,10.3-1.75,15.36,0,13.74,4.5,24.88,13.51,33.44,9.01,8.55,22.65,12.83,40.92,12.83,13.35,0,25.5-2.5,36.45-7.49,7.24-3.3,13.66-7.53,19.28-12.7-7.08,5.89-16.18,9.43-26.11,9.43-22.57,0-40.87-18.3-40.87-40.87,0-.19.01-.39.02-.58-.02-.42-.04-.83-.04-1.26,0-2.46.32-5.18.97-8.16l16.72-77.18h-42.57Z"/>
    </clipPath>
    <linearGradient id="Degradado_sin_nombre_10" data-name="Degradado sin nombre 10" x1="-959.53" y1="1903.87" x2="-958.36" y2="1903.87" gradientTransform="translate(114422.78 226905.21) scale(119.03 -119.03)" gradientUnits="userSpaceOnUse">
      <stop offset="0" stop-color="#e8521d"/>
      <stop offset=".26" stop-color="#e9561c"/>
      <stop offset="1" stop-color="#fdcc07"/>
    </linearGradient>
  </defs>
  <g class="st9">
    <g id="Capa_1">
      <g>
        <rect class="st17" x="105.99" y="455.63" width="190.83" height="127.11" rx="17.08" ry="17.08"/>
        <g>
          <path class="st1" d="M149.62,511h-30.52v-37.22h14.2v25.63h16.32v11.59Z"/>
          <path class="st1" d="M165.62,511h-14.36v-37.22h14.36v37.22Z"/>
          <path class="st1" d="M174.77,510.5c-3.23-.87-5.88-2.03-7.98-3.48l5.05-9.57c5.6,2.8,10.14,4.2,13.61,4.2,1.6,0,2.39-.44,2.39-1.33,0-.6-.35-1.04-1.04-1.33s-1.99-.62-3.91-1.01c-4.89-.99-8.67-2.43-11.32-4.31-2.66-1.88-3.99-4.65-3.99-8.3,0-2.69.72-4.97,2.18-6.83,1.45-1.86,3.43-3.25,5.93-4.17,2.5-.92,5.33-1.38,8.48-1.38,3.4,0,6.52.43,9.36,1.3,2.84.87,5.26,2.19,7.29,3.96l-6.01,8.35c-1.56-1.13-3.22-1.99-4.97-2.58-1.75-.58-3.45-.88-5.08-.88-.96,0-1.68.08-2.16.24-.48.16-.72.45-.72.88s.36.82,1.09,1.2c.73.37,1.96.74,3.7,1.09,3.51.71,6.37,1.55,8.59,2.53,2.21.97,3.9,2.25,5.05,3.83,1.15,1.58,1.73,3.55,1.73,5.93,0,2.69-.74,5.02-2.21,6.97-1.47,1.95-3.48,3.44-6.01,4.47-2.53,1.03-5.36,1.54-8.48,1.54-3.83,0-7.36-.43-10.58-1.3Z"/>
          <path class="st1" d="M201.99,473.78h35.2v11.7h-10.47v25.52h-14.36v-25.52h-10.37v-11.7Z"/>
          <path class="st1" d="M281.76,511h-15.05l-1.65-4.95h-12.28l-1.75,4.95h-14.78l15.58-37.22h14.36l15.58,37.22ZM259,488.19l-3.09,8.83h6.06l-2.98-8.83Z"/>
          <path class="st1" d="M180.64,541.69c1.68.96,3.01,2.27,3.99,3.94s1.46,3.56,1.46,5.69c0,2.48-.7,4.7-2.1,6.67-1.4,1.97-3.32,3.51-5.77,4.63-2.45,1.12-5.19,1.67-8.24,1.67-3.55,0-6.75-.45-9.6-1.35-2.85-.9-5.2-2.23-7.05-3.96l6.06-8.77c3.01,2.06,6.04,3.08,9.09,3.08,1.2,0,2.13-.19,2.79-.56.65-.37.98-.84.98-1.41,0-.89-.36-1.5-1.09-1.84-.73-.34-1.78-.5-3.16-.5-1.03,0-2.67.05-4.92.16-2.25.11-4.02.19-5.29.26l-2.18-4.57.8-18.56h27.81v11.17h-15.53l-.11,3.56c1.59-.5,3.72-.75,6.38-.75,2.09,0,3.98.48,5.66,1.44Z"/>
          <path class="st1" d="M196.12,561.93c-2.75-1.58-4.86-3.83-6.33-6.75-1.47-2.92-2.21-6.36-2.21-10.29s.75-7.36,2.23-10.29c1.49-2.92,3.62-5.17,6.38-6.75,2.77-1.58,6.01-2.37,9.73-2.37s6.96.79,9.71,2.37c2.75,1.58,4.87,3.83,6.36,6.75,1.49,2.92,2.23,6.35,2.23,10.29s-.74,7.37-2.23,10.29c-1.49,2.92-3.62,5.18-6.38,6.75-2.76,1.58-6.03,2.36-9.78,2.36s-6.96-.79-9.7-2.36ZM209.2,550.97c.8-1.51,1.2-3.54,1.2-6.09s-.41-4.52-1.22-6.01c-.82-1.49-1.91-2.23-3.3-2.23s-2.47.74-3.27,2.23c-.8,1.49-1.2,3.49-1.2,6.01s.41,4.58,1.22,6.09c.81,1.51,1.91,2.26,3.3,2.26s2.47-.75,3.27-2.26Z"/>
          <path class="st1" d="M257.77,552.33v11.17h-31.05v-9.47c.18-.11.37-.23.58-.37s.46-.3.74-.48c2.48-1.67,4.61-3.14,6.38-4.41,1.77-1.28,3.35-2.52,4.73-3.72,2.84-2.41,4.25-4.29,4.25-5.64,0-2.06-1.21-3.09-3.62-3.09s-4.8,1.19-7.18,3.56l-7.23-8.56c2.06-1.88,4.48-3.32,7.28-4.33,2.8-1.01,5.66-1.52,8.56-1.52s5.52.49,7.95,1.46c2.43.98,4.37,2.44,5.82,4.39,1.45,1.95,2.18,4.29,2.18,7.02,0,4.25-2.04,7.92-6.11,11.01-1.38,1.03-3.03,2.02-4.95,2.98h11.64Z"/>
        </g>
      </g>
      <g>
        <g>
          <path class="st12" d="M483.95,251.32c6.03,5.51,9.04,13.38,9.04,23.62,0,3.89-.52,8.43-1.56,13.61l-14,65.9h-40.43l12.25-58.32c.52-2.46.78-4.79.78-7,0-3.89-.97-6.74-2.92-8.55-1.94-1.81-4.93-2.72-8.94-2.72-5.83,0-11.05,2.11-15.65,6.32-4.6,4.21-7.62,9.62-9.04,16.23v-.19l-11.47,54.24h-40.63l23.13-108.67h40.43l-2.92,13.8c5.18-5.18,10.89-9.23,17.11-12.15,6.22-2.92,12.7-4.37,19.44-4.37,10.89,0,19.34,2.76,25.37,8.26"/>
          <path class="st12" d="M526.81,354.44h-40.63l23.13-108.67h40.43l-22.94,108.67ZM552.48,236.45h-41.8l5.64-27.02h41.8l-5.64,27.02Z"/>
          <path class="st12" d="M645.79,210.98h40.63l-30.52,143.47h-40.63l2.33-11.47c-9.85,9.33-21.32,14-34.41,14-8.3,0-15.55-1.85-21.77-5.54-6.22-3.69-11.02-8.81-14.39-15.36-3.37-6.54-5.05-14.09-5.05-22.65,0-11.14,2.72-22.16,8.16-33.05,5.44-10.88,13.02-19.83,22.74-26.83,9.72-7,20.61-10.5,32.66-10.5,13.73,0,23.78,5.06,30.13,15.16l10.11-47.24ZM588.05,318.68c2.98,2.98,7.19,4.47,12.64,4.47s10.01-1.43,14.09-4.28c4.08-2.85,7.19-6.45,9.33-10.79,2.14-4.34,3.21-8.71,3.21-13.12,0-5.83-1.59-10.33-4.76-13.51-3.18-3.17-7.55-4.76-13.12-4.76s-10.11,1.49-14,4.47c-3.89,2.98-6.84,6.74-8.84,11.27-2.01,4.54-3.01,9.07-3.01,13.61,0,5.44,1.49,9.66,4.47,12.64"/>
          <path class="st12" d="M776.32,252.87c7.71,6.54,11.57,15.39,11.57,26.53,0,4.15-.52,8.68-1.56,13.61l-13.22,61.43h-40.43l3.11-14.78c-4.28,5.19-9.4,9.36-15.36,12.54-5.96,3.17-12.64,4.76-20.02,4.76-6.61,0-12.41-1.26-17.4-3.79-4.99-2.53-8.84-5.99-11.57-10.4-2.72-4.41-4.08-9.33-4.08-14.78,0-6.48,1.62-12.64,4.86-18.47,3.24-5.83,8.81-10.69,16.72-14.58,7.9-3.89,18.47-5.83,31.69-5.83,4.4,0,12.96.32,25.66.97.26-1.81.39-3.11.39-3.89,0-8.17-5.9-12.25-17.69-12.25-5.32,0-10.89.75-16.72,2.23-5.83,1.49-11.02,3.47-15.55,5.93l-7.97-26.63c7.51-3.89,15.65-6.93,24.4-9.14,8.75-2.2,17.33-3.3,25.76-3.3,17.23,0,29.71,3.27,37.42,9.82M733.65,322.66c4.4-3.56,7.32-8.26,8.75-14.09l.19-1.16c-4.15-.52-9.33-.78-15.55-.78s-10.98,1.3-14.29,3.89c-3.31,2.59-4.96,5.7-4.96,9.33,0,2.59,1,4.6,3.01,6.03,2.01,1.43,4.76,2.14,8.26,2.14,5.31,0,10.17-1.78,14.58-5.35"/>
          <path class="st12" d="M779.34,343.36l13.22-24.69c6.74,3.24,13.35,5.8,19.83,7.68,6.48,1.88,13.35,2.82,20.61,2.82,3.63,0,6.67-.49,9.14-1.46,2.46-.97,3.69-2.62,3.69-4.96,0-2.07-1.17-3.69-3.5-4.86-2.33-1.17-6.68-2.33-13.02-3.5-12.57-1.94-21.97-5.7-28.19-11.28-6.22-5.57-9.33-12.51-9.33-20.8,0-6.87,1.85-13.25,5.54-19.15,3.69-5.9,9.36-10.69,17.01-14.39,7.65-3.69,17.17-5.54,28.58-5.54,18.66,0,35.18,4.28,49.57,12.83l-15.75,23.91c-11.41-5.96-23.01-8.94-34.8-8.94-7.26,0-10.89,1.88-10.89,5.64,0,1.69,1.04,3.05,3.11,4.08,2.07,1.04,6.03,2.14,11.86,3.31,25.79,4.28,38.69,14.97,38.69,32.08,0,7.13-1.85,13.77-5.54,19.93-3.69,6.16-9.75,11.18-18.18,15.07-8.43,3.89-19.31,5.83-32.66,5.83-17.76,0-34.09-4.54-48.99-13.61"/>
          <g class="st16">
            <rect class="st2" x="220.02" y="197.89" width="172.12" height="179.75" transform="translate(-49.78 511.05) rotate(-75.34)"/>
          </g>
          <g class="st5">
            <g class="st8">
              <g class="st15">
                <rect class="st7" x="218.52" y="196.57" width="175.12" height="182.39" transform="translate(-55.91 500.97) rotate(-73.73)"/>
              </g>
            </g>
          </g>
          <g class="st11">
            <rect class="st14" x="207.47" y="220.02" width="157.89" height="135.5" transform="translate(-52.43 511.43) rotate(-78.56)"/>
          </g>
          <path class="st12" d="M297.56,150.02c2.95,1.25,5.21,3.01,6.79,5.28,1.57,2.26,2.36,4.85,2.36,7.75,0,3.35-.9,6.66-2.69,9.93-1.8,3.27-4.69,6-8.67,8.19-3.99,2.19-9.08,3.28-15.27,3.28h-10.77l-3.25,15.35h-9.74l10.99-51.65h19.92c3.94,0,7.38.63,10.33,1.88M280.81,175.88c3.74,0,6.8-.56,9.19-1.7,2.39-1.13,4.12-2.52,5.2-4.17,1.08-1.65,1.62-3.33,1.62-5.05,0-2.56-.95-4.58-2.84-6.05-1.89-1.48-4.54-2.21-7.93-2.21h-10.85l-4.06,19.19h9.67Z"/>
          <path class="st12" d="M336.45,159.13l-2.07,8.85c-1.23-.34-2.56-.51-3.98-.51-3.44,0-6.31,1.23-8.6,3.69-2.29,2.46-3.9,5.98-4.83,10.55l-3.84,18.08h-9.37l8.56-40.44h9.37l-.88,4.28c3.39-3.2,7.55-4.8,12.47-4.8.64,0,1.7.1,3.17.3"/>
          <path class="st12" d="M341.13,198.32c-2.83-1.52-5.01-3.63-6.53-6.31-1.53-2.68-2.29-5.69-2.29-9.04,0-4.28,1.07-8.29,3.21-12.03,2.14-3.74,5.1-6.74,8.89-9,3.79-2.26,8.04-3.4,12.77-3.4,3.84,0,7.18.76,10.04,2.29,2.85,1.52,5.04,3.62,6.57,6.27,1.52,2.66,2.29,5.63,2.29,8.93,0,4.28-1.08,8.3-3.25,12.06-2.17,3.76-5.15,6.79-8.97,9.08-3.81,2.29-8.08,3.43-12.8,3.43-3.79,0-7.1-.76-9.93-2.29M359.8,189.94c2.14-1.5,3.79-3.41,4.94-5.72,1.16-2.31,1.73-4.65,1.73-7.01,0-3.25-.95-5.77-2.84-7.56-1.89-1.8-4.46-2.69-7.71-2.69-2.66,0-5.05.7-7.19,2.1-2.14,1.4-3.81,3.25-5.02,5.53-1.21,2.29-1.81,4.69-1.81,7.19,0,3.3.93,5.86,2.8,7.67,1.87,1.82,4.45,2.73,7.75,2.73,2.76,0,5.2-.75,7.34-2.25"/>
          <polygon class="st12" points="396.95 199.79 386.77 199.79 378.36 159.35 387.8 159.35 393.63 189.17 393.71 189.17 411.71 159.35 422.34 159.35 396.95 199.79"/>
          <path class="st12" d="M426.69,199.79h-9.37l8.56-40.44h9.37l-8.56,40.44ZM436.43,154.48h-9.74l1.92-8.93h9.74l-1.92,8.93Z"/>
          <path class="st12" d="M475.65,161.97c2.53,2.29,3.8,5.47,3.8,9.56,0,1.57-.17,3.12-.52,4.65l-5.09,23.61h-9.3l4.72-22.21c.34-1.58.52-3.03.52-4.35,0-2.21-.57-3.79-1.7-4.72-1.13-.93-2.85-1.4-5.17-1.4-3.54,0-6.68,1.1-9.41,3.28-2.73,2.19-4.56,5.01-5.5,8.45l-4.43,20.96h-9.37l8.56-40.44h9.37l-1.03,4.8c1.97-1.72,4.17-3.09,6.6-4.1,2.43-1.01,5.03-1.51,7.78-1.51,4.23,0,7.61,1.14,10.15,3.43"/>
          <path class="st12" d="M491.59,198.43c-2.83-1.45-5.02-3.53-6.57-6.24-1.55-2.71-2.32-5.85-2.32-9.45,0-4.23,1.08-8.2,3.25-11.92,2.16-3.72,5.17-6.69,9-8.93,3.84-2.24,8.14-3.36,12.91-3.36,3.44,0,6.52.74,9.22,2.21,2.7,1.48,4.85,3.42,6.42,5.83l-7.01,5.53c-1.08-1.67-2.42-2.95-4.02-3.84-1.6-.89-3.65-1.33-6.16-1.33s-4.85.71-7.01,2.14c-2.17,1.43-3.89,3.27-5.17,5.54-1.28,2.26-1.92,4.62-1.92,7.08,0,3.39.96,5.99,2.88,7.79,1.92,1.8,4.53,2.69,7.82,2.69,1.82,0,3.49-.33,5.02-1,1.52-.66,3.2-1.76,5.02-3.28l5.31,5.53c-2.36,2.46-5.02,4.27-7.97,5.42-2.95,1.16-5.9,1.74-8.85,1.74-3.74,0-7.02-.73-9.85-2.18"/>
          <path class="st12" d="M530.95,199.79h-9.37l8.56-40.44h9.37l-8.56,40.44ZM540.69,154.48h-9.74l1.92-8.93h9.74l-1.92,8.93Z"/>
          <path class="st12" d="M575.6,161.9c2.51,2.24,3.76,5.25,3.76,9.04,0,1.58-.17,3.13-.52,4.65l-5.17,24.2h-9.37l1.48-6.94c-4.18,5.16-9,7.75-14.46,7.75-2.61,0-4.91-.51-6.9-1.51-1.99-1.01-3.52-2.36-4.58-4.06-1.06-1.7-1.59-3.53-1.59-5.5,0-2.41.63-4.72,1.88-6.94,1.25-2.21,3.31-4.05,6.16-5.5,2.85-1.45,6.57-2.18,11.14-2.18,3.79,0,7.77.22,11.95.66.2-.79.3-1.67.3-2.66,0-2.02-.7-3.63-2.1-4.83-1.4-1.21-3.65-1.81-6.75-1.81-1.87,0-3.92.39-6.16,1.18-2.24.79-4.24,1.82-6.01,3.1l-3.39-6.42c2.9-1.87,5.94-3.27,9.11-4.21,3.17-.93,6.19-1.4,9.04-1.4,5.61,0,9.67,1.12,12.17,3.36M562.79,189.76c2.48-1.87,4.17-4.16,5.05-6.86l.15-.66c-2.85-.44-6.08-.67-9.67-.67s-6.11.57-8.01,1.7c-1.89,1.13-2.84,2.78-2.84,4.94,0,1.43.61,2.51,1.84,3.25,1.23.74,3.03,1.11,5.39,1.11,2.9,0,5.59-.93,8.08-2.8"/>
          <path class="st12" d="M587.26,198.94c-3.15-1.06-5.86-2.4-8.12-4.02l4.13-6.86c4.23,2.8,9.05,4.21,14.46,4.21,2.36,0,4.3-.32,5.83-.96,1.52-.64,2.29-1.62,2.29-2.95,0-1.23-.58-2.18-1.73-2.84-1.16-.66-3.33-1.36-6.53-2.1-4.62-.98-8.01-2.46-10.15-4.43-2.14-1.97-3.21-4.45-3.21-7.45,0-2.11.54-4.14,1.62-6.09,1.08-1.94,2.86-3.57,5.35-4.87,2.48-1.3,5.72-1.96,9.7-1.96s7.16.47,10.11,1.4c2.95.93,5.39,2.12,7.3,3.54l-4.87,6.49c-3.74-2.11-7.99-3.17-12.77-3.17-4.38,0-6.57,1.13-6.57,3.4,0,.69.22,1.25.66,1.7.44.44,1.19.86,2.25,1.25,1.06.39,2.67.86,4.83,1.4,4.87,1.18,8.36,2.76,10.48,4.72,2.11,1.97,3.17,4.53,3.17,7.67,0,2.21-.65,4.35-1.96,6.42-1.3,2.07-3.36,3.76-6.16,5.09-2.8,1.33-6.35,1.99-10.63,1.99-3.2,0-6.37-.53-9.52-1.59"/>
        </g>
        <g>
          <path class="st12" d="M600.07,399.1c-2.48-1.3-4.4-3.11-5.76-5.44-1.37-2.33-2.05-4.99-2.05-7.99,0-3.64.88-7.08,2.65-10.32,1.77-3.24,4.26-5.85,7.46-7.84,3.2-1.99,6.86-2.99,10.97-2.99,2.9,0,5.44.54,7.61,1.62,2.17,1.08,4.12,2.61,5.84,4.6l-5.01,4c-1.21-1.42-2.52-2.49-3.92-3.21-1.4-.72-3.11-1.09-5.13-1.09-2.73,0-5.13.68-7.18,2.05-2.06,1.37-3.63,3.15-4.73,5.36-1.1,2.21-1.64,4.53-1.64,6.96,0,3.1.92,5.59,2.76,7.46,1.84,1.87,4.36,2.81,7.56,2.81,3.54,0,6.83-1.32,9.86-3.95l3.49,3.95c-2.13,1.96-4.39,3.44-6.78,4.45-2.39,1.01-4.84,1.52-7.33,1.52-3.3,0-6.19-.65-8.67-1.95Z"/>
          <path class="st12" d="M652.44,374.52c1.72,1.53,2.58,3.6,2.58,6.2,0,1.08-.12,2.14-.35,3.19l-3.54,16.59h-6.42l1.01-4.75c-2.86,3.54-6.17,5.31-9.91,5.31-1.79,0-3.36-.35-4.73-1.04-1.37-.69-2.41-1.62-3.13-2.78-.72-1.16-1.09-2.42-1.09-3.77,0-1.65.43-3.24,1.29-4.75.86-1.52,2.27-2.77,4.22-3.77,1.96-.99,4.5-1.49,7.64-1.49,2.6,0,5.33.15,8.19.46.13-.54.2-1.15.2-1.82,0-1.38-.48-2.49-1.44-3.31-.96-.83-2.5-1.24-4.63-1.24-1.28,0-2.69.27-4.22.81-1.53.54-2.91,1.25-4.12,2.12l-2.33-4.4c1.99-1.28,4.07-2.24,6.25-2.88,2.18-.64,4.24-.96,6.2-.96,3.84,0,6.63.77,8.34,2.3ZM643.67,393.61c1.7-1.28,2.86-2.85,3.46-4.7l.1-.46c-1.96-.3-4.17-.46-6.63-.46s-4.19.39-5.49,1.16c-1.3.78-1.95,1.91-1.95,3.39,0,.98.42,1.72,1.26,2.22.84.51,2.08.76,3.69.76,1.99,0,3.84-.64,5.54-1.92Z"/>
          <path class="st12" d="M672.07,378.54l-2.53,11.94c-.14.81-.2,1.38-.2,1.72,0,2.09,1.03,3.14,3.09,3.14,1.55,0,3.2-.37,4.96-1.11l.1,5.01c-.91.57-2.01,1.02-3.29,1.34-1.28.32-2.53.48-3.74.48-2.63,0-4.58-.66-5.84-1.97-1.26-1.32-1.9-3.08-1.9-5.31,0-1.11.12-2.19.35-3.24l2.58-11.99h-4.65l1.21-5.77h4.91l2.53-7.18h5.21l-1.52,7.18h8.85l-1.21,5.77h-8.9Z"/>
          <path class="st12" d="M708.63,374.52c1.72,1.53,2.58,3.6,2.58,6.2,0,1.08-.12,2.14-.35,3.19l-3.54,16.59h-6.42l1.01-4.75c-2.86,3.54-6.17,5.31-9.91,5.31-1.79,0-3.36-.35-4.73-1.04-1.37-.69-2.41-1.62-3.13-2.78-.72-1.16-1.09-2.42-1.09-3.77,0-1.65.43-3.24,1.29-4.75.86-1.52,2.27-2.77,4.22-3.77,1.96-.99,4.5-1.49,7.64-1.49,2.6,0,5.33.15,8.19.46.13-.54.2-1.15.2-1.82,0-1.38-.48-2.49-1.44-3.31-.96-.83-2.5-1.24-4.63-1.24-1.28,0-2.69.27-4.22.81-1.53.54-2.91,1.25-4.12,2.12l-2.33-4.4c1.99-1.28,4.07-2.24,6.25-2.88,2.18-.64,4.24-.96,6.2-.96,3.84,0,6.63.77,8.34,2.3ZM699.86,393.61c1.7-1.28,2.86-2.85,3.46-4.7l.1-.46c-1.96-.3-4.17-.46-6.63-.46s-4.19.39-5.49,1.16c-1.3.78-1.95,1.91-1.95,3.39,0,.98.42,1.72,1.26,2.22.84.51,2.08.76,3.69.76,1.99,0,3.84-.64,5.54-1.92Z"/>
          <path class="st12" d="M761.94,374.34c1.42,1.42,2.12,3.44,2.12,6.07,0,1.15-.15,2.41-.45,3.79l-3.44,16.29h-6.47l3.29-15.38c.2-1.01.3-1.91.3-2.68,0-1.45-.35-2.54-1.04-3.26-.69-.72-1.69-1.09-3.01-1.09-2.16,0-4.13.73-5.92,2.2-1.79,1.47-3.02,3.35-3.69,5.64l-3.08,14.57h-6.47l3.29-15.38c.2-1.01.3-1.91.3-2.68,0-1.45-.35-2.54-1.04-3.26-.69-.72-1.7-1.09-3.01-1.09-1.48,0-2.92.37-4.3,1.11-1.38.74-2.56,1.77-3.54,3.08s-1.64,2.78-1.97,4.4l-2.93,13.81h-6.42l5.87-27.72h6.42l-.71,3.39c1.38-1.21,2.95-2.17,4.7-2.88,1.75-.71,3.59-1.06,5.51-1.06,2.12,0,3.85.46,5.18,1.39,1.33.93,2.23,2.28,2.71,4.07,1.42-1.58,3.16-2.89,5.23-3.92,2.08-1.03,4.26-1.54,6.55-1.54,2.59,0,4.6.71,6.02,2.12Z"/>
          <path class="st12" d="M792.69,374.52c1.72,1.53,2.58,3.6,2.58,6.2,0,1.08-.12,2.14-.35,3.19l-3.54,16.59h-6.42l1.01-4.75c-2.86,3.54-6.17,5.31-9.91,5.31-1.79,0-3.36-.35-4.73-1.04-1.37-.69-2.41-1.62-3.13-2.78-.72-1.16-1.09-2.42-1.09-3.77,0-1.65.43-3.24,1.29-4.75.86-1.52,2.27-2.77,4.22-3.77,1.96-.99,4.5-1.49,7.64-1.49,2.6,0,5.33.15,8.19.46.13-.54.2-1.15.2-1.82,0-1.38-.48-2.49-1.44-3.31-.96-.83-2.5-1.24-4.63-1.24-1.28,0-2.69.27-4.22.81-1.53.54-2.91,1.25-4.12,2.12l-2.33-4.4c1.99-1.28,4.07-2.24,6.25-2.88,2.18-.64,4.24-.96,6.2-.96,3.84,0,6.63.77,8.34,2.3ZM783.92,393.61c1.7-1.28,2.86-2.85,3.46-4.7l.1-.46c-1.96-.3-4.17-.46-6.63-.46s-4.19.39-5.49,1.16c-1.3.78-1.95,1.91-1.95,3.39,0,.98.42,1.72,1.26,2.22.84.51,2.08.76,3.69.76,1.99,0,3.84-.64,5.54-1.92Z"/>
          <path class="st12" d="M820.91,372.62l-1.42,6.07c-.84-.23-1.75-.35-2.73-.35-2.36,0-4.33.84-5.89,2.53-1.57,1.69-2.67,4.1-3.31,7.23l-2.63,12.39h-6.42l5.87-27.72h6.42l-.61,2.93c2.33-2.19,5.18-3.29,8.55-3.29.44,0,1.16.07,2.18.2Z"/>
          <path class="st12" d="M826.65,399.55c-1.94-.99-3.44-2.42-4.5-4.27-1.06-1.85-1.59-4.01-1.59-6.47,0-2.9.74-5.62,2.23-8.17,1.48-2.55,3.54-4.58,6.17-6.12,2.63-1.53,5.58-2.3,8.85-2.3,2.36,0,4.47.51,6.32,1.52,1.86,1.01,3.32,2.34,4.4,4l-4.81,3.79c-.74-1.15-1.66-2.02-2.76-2.63-1.1-.61-2.5-.91-4.22-.91s-3.32.49-4.81,1.47c-1.48.98-2.66,2.24-3.54,3.79-.88,1.55-1.32,3.17-1.32,4.86,0,2.33.66,4.11,1.97,5.34,1.32,1.23,3.1,1.85,5.36,1.85,1.25,0,2.39-.23,3.44-.68s2.19-1.21,3.44-2.25l3.64,3.79c-1.62,1.69-3.44,2.93-5.46,3.72-2.02.79-4.05,1.19-6.07,1.19-2.56,0-4.81-.5-6.75-1.49Z"/>
          <path class="st12" d="M875.08,374.52c1.72,1.53,2.58,3.6,2.58,6.2,0,1.08-.12,2.14-.35,3.19l-3.54,16.59h-6.42l1.01-4.75c-2.86,3.54-6.17,5.31-9.91,5.31-1.79,0-3.36-.35-4.73-1.04-1.37-.69-2.41-1.62-3.13-2.78-.72-1.16-1.09-2.42-1.09-3.77,0-1.65.43-3.24,1.29-4.75.86-1.52,2.27-2.77,4.22-3.77,1.96-.99,4.5-1.49,7.64-1.49,2.6,0,5.33.15,8.19.46.13-.54.2-1.15.2-1.82,0-1.38-.48-2.49-1.44-3.31-.96-.83-2.5-1.24-4.63-1.24-1.28,0-2.69.27-4.22.81-1.53.54-2.91,1.25-4.12,2.12l-2.33-4.4c1.99-1.28,4.07-2.24,6.25-2.88,2.18-.64,4.24-.96,6.2-.96,3.84,0,6.63.77,8.34,2.3ZM866.31,393.61c1.7-1.28,2.86-2.85,3.46-4.7l.1-.46c-1.96-.3-4.17-.46-6.63-.46s-4.19.39-5.49,1.16c-1.3.78-1.95,1.91-1.95,3.39,0,.98.42,1.72,1.26,2.22.84.51,2.08.76,3.69.76,1.99,0,3.84-.64,5.54-1.92Z"/>
        </g>
        <g>
          <path class="st12" d="M270.38,137.17c-2.8-.96-5.22-2.26-7.28-3.92l3.3-5.41c4.22,2.99,8.73,4.49,13.53,4.49,2.6,0,4.5-.47,5.71-1.41,1.21-.94,1.81-2.02,1.81-3.25,0-1.66-.62-2.9-1.87-3.73-1.24-.83-3.22-1.62-5.92-2.38-3.5-1.01-6.33-2.38-8.49-4.11-2.16-1.73-3.25-3.9-3.25-6.49,0-2.05.51-3.94,1.54-5.65,1.03-1.71,2.65-3.1,4.87-4.17,2.22-1.06,5.06-1.6,8.52-1.6,5.09,0,9.94,1.71,14.55,5.14l-4.33,4.65c-3.32-2.34-6.89-3.52-10.71-3.52-2.31,0-4.07.42-5.27,1.24-1.21.83-1.81,1.79-1.81,2.87,0,.94.31,1.72.92,2.35.61.63,1.41,1.15,2.41,1.54.99.4,2.37.86,4.14,1.41,4.18,1.3,7.25,2.78,9.2,4.44,1.95,1.66,2.92,3.95,2.92,6.87,0,1.84-.51,3.69-1.54,5.54-1.03,1.86-2.71,3.41-5.03,4.65-2.33,1.24-5.27,1.87-8.85,1.87-3.25,0-6.27-.48-9.06-1.43Z"/>
          <path class="st12" d="M307.11,136.93c-2.07-1.12-3.67-2.66-4.79-4.63-1.12-1.97-1.68-4.18-1.68-6.63,0-3.14.79-6.08,2.35-8.82,1.57-2.74,3.74-4.94,6.52-6.6,2.78-1.66,5.9-2.49,9.36-2.49,2.81,0,5.27.56,7.36,1.68,2.09,1.12,3.7,2.65,4.81,4.6,1.12,1.95,1.68,4.13,1.68,6.55,0,3.14-.79,6.09-2.38,8.85-1.59,2.76-3.78,4.98-6.57,6.65-2.8,1.68-5.92,2.52-9.39,2.52-2.78,0-5.2-.56-7.28-1.68ZM320.8,130.79c1.57-1.1,2.78-2.5,3.62-4.19.85-1.69,1.27-3.41,1.27-5.14,0-2.38-.7-4.23-2.08-5.55-1.39-1.32-3.27-1.97-5.65-1.97-1.95,0-3.71.51-5.27,1.54-1.57,1.03-2.8,2.38-3.68,4.06-.88,1.68-1.33,3.44-1.33,5.27,0,2.42.69,4.29,2.06,5.63,1.37,1.34,3.26,2,5.68,2,2.02,0,3.81-.55,5.38-1.65Z"/>
          <path class="st12" d="M386.77,110.04c1.52,1.52,2.27,3.68,2.27,6.49,0,1.23-.16,2.58-.49,4.06l-3.68,17.42h-6.92l3.52-16.45c.22-1.08.32-2.04.32-2.87,0-1.55-.37-2.71-1.11-3.49-.74-.77-1.81-1.16-3.22-1.16-2.31,0-4.42.78-6.33,2.35-1.91,1.57-3.23,3.58-3.95,6.03l-3.3,15.58h-6.92l3.52-16.45c.22-1.08.32-2.04.32-2.87,0-1.55-.37-2.71-1.11-3.49-.74-.77-1.81-1.16-3.22-1.16-1.59,0-3.12.4-4.6,1.19-1.48.79-2.74,1.89-3.79,3.3-1.05,1.41-1.75,2.98-2.11,4.71l-3.14,14.77h-6.87l6.28-29.65h6.87l-.76,3.62c1.48-1.3,3.15-2.33,5.03-3.08,1.87-.76,3.84-1.14,5.9-1.14,2.27,0,4.12.5,5.54,1.49,1.42.99,2.39,2.44,2.9,4.35,1.51-1.69,3.38-3.09,5.6-4.19,2.22-1.1,4.55-1.65,7-1.65,2.78,0,4.92.76,6.44,2.27Z"/>
          <path class="st12" d="M400.33,136.93c-2.07-1.12-3.67-2.66-4.79-4.63-1.12-1.97-1.68-4.18-1.68-6.63,0-3.14.79-6.08,2.35-8.82,1.57-2.74,3.74-4.94,6.52-6.6,2.78-1.66,5.9-2.49,9.36-2.49,2.81,0,5.27.56,7.36,1.68,2.09,1.12,3.7,2.65,4.81,4.6,1.12,1.95,1.68,4.13,1.68,6.55,0,3.14-.79,6.09-2.38,8.85-1.59,2.76-3.78,4.98-6.57,6.65-2.8,1.68-5.92,2.52-9.39,2.52-2.78,0-5.2-.56-7.28-1.68ZM414.01,130.79c1.57-1.1,2.78-2.5,3.62-4.19.85-1.69,1.27-3.41,1.27-5.14,0-2.38-.7-4.23-2.08-5.55-1.39-1.32-3.27-1.97-5.65-1.97-1.95,0-3.71.51-5.27,1.54-1.57,1.03-2.8,2.38-3.68,4.06-.88,1.68-1.33,3.44-1.33,5.27,0,2.42.69,4.29,2.06,5.63,1.37,1.34,3.26,2,5.68,2,2.02,0,3.81-.55,5.38-1.65Z"/>
          <path class="st12" d="M434.06,137.39c-2.31-.77-4.29-1.76-5.95-2.95l3.03-5.03c3.1,2.06,6.63,3.08,10.6,3.08,1.73,0,3.16-.23,4.28-.7,1.12-.47,1.67-1.19,1.67-2.16,0-.9-.42-1.6-1.27-2.08-.85-.49-2.44-1-4.79-1.54-3.39-.72-5.87-1.8-7.44-3.25-1.57-1.44-2.35-3.26-2.35-5.46,0-1.55.4-3.04,1.19-4.46.79-1.42,2.1-2.62,3.92-3.57s4.19-1.43,7.11-1.43,5.25.34,7.41,1.03c2.16.69,3.95,1.55,5.36,2.6l-3.57,4.76c-2.74-1.55-5.86-2.33-9.36-2.33-3.21,0-4.81.83-4.81,2.49,0,.51.16.92.49,1.24.32.32.87.63,1.65.92.78.29,1.96.63,3.54,1.03,3.57.87,6.13,2.02,7.68,3.46,1.55,1.44,2.33,3.32,2.33,5.63,0,1.62-.48,3.19-1.43,4.71-.96,1.51-2.47,2.76-4.52,3.73-2.06.97-4.65,1.46-7.8,1.46-2.34,0-4.67-.39-6.98-1.16Z"/>
        </g>
      </g>
      <g>
        <circle class="st1" cx="324.62" cy="822.06" r="56.9"/>
        <g>
          <g>
            <path class="st12" d="M295.8,826.29c0,2.21-.43,3.83-1.27,4.81-.81.95-2.38,1.43-4.66,1.43-1.32,0-2.37-.18-3.13-.54-.75-.36-1.33-.81-1.73-1.36-.41-.55-.68-1.2-.81-1.92-.14-.79-.21-1.61-.21-2.43v-20.62h-8.46v20.62c0,4.56,1.28,8,3.81,10.22,2.5,2.2,6.04,3.32,10.54,3.32s7.96-1.12,10.51-3.34c2.57-2.24,3.88-5.67,3.88-10.2v-20.62h-8.46v20.62Z"/>
            <path class="st12" d="M331.48,825.98c-.25,1.99-.94,3.61-2.04,4.81-1.08,1.18-2.56,1.75-4.53,1.75-1.46,0-2.7-.28-3.7-.83-1-.55-1.82-1.3-2.45-2.22-.64-.94-1.11-2.02-1.4-3.21-.3-1.21-.45-2.47-.45-3.75,0-1.35.15-2.66.45-3.92.29-1.23.76-2.34,1.4-3.29.62-.93,1.44-1.68,2.45-2.24,1-.55,2.24-.83,3.69-.83.78,0,1.54.13,2.25.39.72.26,1.36.62,1.93,1.07.56.46,1.04.99,1.41,1.59.36.59.6,1.25.71,1.95l.09.6h8.21l-.09-.78c-.22-1.94-.76-3.69-1.61-5.2-.85-1.51-1.94-2.79-3.25-3.82-1.31-1.02-2.8-1.8-4.44-2.33-1.63-.53-3.39-.8-5.22-.8-2.54,0-4.86.46-6.9,1.36-2.04.9-3.79,2.17-5.2,3.77-1.4,1.59-2.49,3.47-3.23,5.59-.74,2.11-1.11,4.43-1.11,6.89s.37,4.68,1.12,6.76c.74,2.09,1.84,3.95,3.24,5.51,1.41,1.56,3.15,2.81,5.2,3.69,2.04.89,4.36,1.34,6.9,1.34,2.04,0,3.95-.32,5.67-.94,1.72-.63,3.25-1.55,4.54-2.75,1.29-1.19,2.34-2.66,3.12-4.35.78-1.69,1.27-3.59,1.45-5.66l.07-.77h-8.21l-.08.62Z"/>
            <path class="st12" d="M372.91,837.98c-.28-.38-.49-.85-.63-1.4-.15-.61-.27-1.26-.34-1.93-.08-.74-.13-1.41-.16-2.07-.03-.69-.06-1.29-.09-1.81-.06-.84-.18-1.69-.35-2.51-.18-.87-.47-1.68-.85-2.41-.4-.74-.92-1.4-1.55-1.95-.29-.25-.61-.47-.97-.67,1.24-.72,2.2-1.65,2.85-2.78.85-1.48,1.28-3.24,1.28-5.24,0-1.31-.24-2.55-.71-3.7-.47-1.15-1.16-2.17-2.04-3.04-.89-.87-1.96-1.56-3.2-2.06-1.23-.5-2.62-.75-4.14-.75h-17.97v33.44h8.45v-12.51h6.34c1.56,0,2.68.32,3.31.95.66.67,1.11,1.77,1.32,3.28.18,1.27.32,2.61.4,3.98.1,1.47.35,2.76.76,3.84l.17.46h8.92l-.82-1.12ZM352.5,812.56h7.01c1.43,0,2.5.29,3.17.88.64.56.97,1.52.97,2.86s-.33,2.39-.98,2.97c-.67.6-1.73.9-3.16.9h-7.01v-7.6Z"/>
          </g>
          <g>
            <path class="st4" d="M324.63,768.52c-18.94,0-35.59,9.79-45.18,24.58h90.36c-9.59-14.79-26.24-24.58-45.18-24.58Z"/>
            <path class="st4" d="M363.26,851.57h-83.85c1.2,1.85,2.5,3.63,3.92,5.31,0,0,.02.03.03.04.09.11.18.21.27.31t.02.02c9.86,11.6,24.55,18.97,40.98,18.97s31.11-7.35,40.96-18.94c.12-.11.25-.25.34-.39.04-.04.08-.08.11-.13,1.37-1.65,2.65-3.37,3.81-5.18h-6.57Z"/>
          </g>
        </g>
        <g>
          <path class="st12" d="M488.82,831.54c0-5.25,1.67-9.53,5.02-12.85,3.35-3.32,7.65-4.98,12.89-4.98,4.88,0,8.97,1.69,12.28,5.08,3.31,3.39,4.96,7.59,4.96,12.6s-1.65,9.36-4.96,12.74c-3.31,3.38-7.46,5.06-12.44,5.06-5.62,0-9.98-1.79-13.09-5.36-3.11-3.57-4.67-7.67-4.67-12.28ZM514.02,831.54c0-2.29-.75-4.3-2.25-6.01-1.5-1.71-3.26-2.57-5.26-2.57s-3.88.8-5.38,2.41c-1.5,1.61-2.25,3.53-2.25,5.77,0,2.45.74,4.54,2.23,6.25,1.49,1.71,3.29,2.57,5.4,2.57s3.76-.84,5.26-2.51c1.5-1.67,2.25-3.64,2.25-5.91Z"/>
          <path class="st12" d="M526.91,814.45h10.69l9.34,19.93,9.32-19.93h10.59l-15.84,34.01h-8.26l-15.85-34.01Z"/>
          <path class="st12" d="M572.48,801.86c0-1.72.62-3.2,1.86-4.44,1.24-1.24,2.73-1.87,4.47-1.87s3.23.62,4.47,1.87c1.24,1.24,1.86,2.72,1.86,4.44s-.62,3.24-1.86,4.48c-1.24,1.24-2.73,1.86-4.47,1.86s-3.23-.62-4.47-1.86c-1.24-1.24-1.86-2.74-1.86-4.48ZM573.78,814.45h10.13v34.01h-10.13v-34.01Z"/>
          <path class="st12" d="M594.82,795.67h10.13v52.8h-10.13v-52.8Z"/>
          <path class="st12" d="M614.56,801.86c0-1.72.62-3.2,1.86-4.44,1.24-1.24,2.73-1.87,4.47-1.87s3.23.62,4.47,1.87c1.24,1.24,1.86,2.72,1.86,4.44s-.62,3.24-1.86,4.48c-1.24,1.24-2.73,1.86-4.47,1.86s-3.23-.62-4.47-1.86c-1.24-1.24-1.86-2.74-1.86-4.48ZM615.87,814.45h10.13v34.01h-10.13v-34.01Z"/>
          <path class="st12" d="M636.39,814.45h32.04l-17.97,24.68h15.12v9.33h-32.04l18.06-24.8h-15.21v-9.22Z"/>
          <path class="st12" d="M697.82,848.47v-5.81h-.16c-1.58,2.27-3.18,3.91-4.79,4.92-1.61,1.01-3.6,1.52-5.97,1.52-3.98,0-7.37-1.71-10.16-5.14-2.8-3.43-4.19-7.59-4.19-12.5s1.49-9.01,4.47-12.48c2.98-3.47,6.51-5.2,10.6-5.2,1.95,0,3.7.44,5.26,1.31,1.56.87,3.2,2.25,4.94,4.15v-4.71h10.13v33.94h-10.13ZM690.38,823.91c-2,0-3.68.8-5.02,2.39-1.34,1.6-2.02,3.61-2.02,6.03,0,2.27.64,4.09,1.92,5.48,1.28,1.38,2.96,2.08,5.04,2.08s3.72-.8,5.14-2.39c1.42-1.6,2.14-3.53,2.14-5.79,0-2.11-.71-3.94-2.14-5.48-1.42-1.54-3.11-2.31-5.06-2.31Z"/>
          <path class="st12" d="M742.67,836.68v10.13c-3.48,1.58-6.37,2.37-8.66,2.37-5.12,0-9.39-1.69-12.81-5.06-3.43-3.37-5.14-7.59-5.14-12.66s1.59-9.31,4.77-12.66c3.18-3.35,7.2-5.02,12.08-5.02,3.4,0,6.7.79,9.89,2.37v9.57c-2.95-1.42-5.66-2.14-8.11-2.14-2.27,0-4.09.69-5.48,2.08-1.38,1.38-2.08,3.21-2.08,5.48s.69,4.05,2.06,5.44c1.37,1.38,3.18,2.08,5.42,2.08,2.03,0,4.72-.66,8.07-1.98Z"/>
          <path class="st12" d="M749.87,801.86c0-1.72.62-3.2,1.86-4.44,1.24-1.24,2.73-1.87,4.47-1.87s3.23.62,4.47,1.87c1.24,1.24,1.86,2.72,1.86,4.44s-.62,3.24-1.86,4.48c-1.24,1.24-2.73,1.86-4.47,1.86s-3.23-.62-4.47-1.86c-1.24-1.24-1.86-2.74-1.86-4.48ZM751.17,814.45h10.13v34.01h-10.13v-34.01Z"/>
          <path class="st12" d="M770.83,831.54c0-5.25,1.67-9.53,5.02-12.85,3.35-3.32,7.65-4.98,12.89-4.98,4.88,0,8.97,1.69,12.28,5.08,3.31,3.39,4.96,7.59,4.96,12.6s-1.65,9.36-4.96,12.74c-3.31,3.38-7.46,5.06-12.44,5.06-5.62,0-9.98-1.79-13.09-5.36-3.11-3.57-4.67-7.67-4.67-12.28ZM796.03,831.54c0-2.29-.75-4.3-2.25-6.01-1.5-1.71-3.26-2.57-5.26-2.57s-3.88.8-5.38,2.41c-1.5,1.61-2.25,3.53-2.25,5.77,0,2.45.74,4.54,2.23,6.25,1.49,1.71,3.29,2.57,5.4,2.57s3.76-.84,5.26-2.51c1.5-1.67,2.25-3.64,2.25-5.91ZM782.3,809.27l5.54-11.83h12.38l-10.84,11.83h-7.08Z"/>
          <path class="st12" d="M825.65,814.45v4.03c3.45-3.24,7.08-4.86,10.88-4.86,3.24,0,5.93,1.33,8.05,3.99,2.12,2.66,3.18,6.07,3.18,10.2v20.65h-10.28v-19.02c0-1.95-.53-3.6-1.6-4.94-1.07-1.34-2.37-2.02-3.9-2.02-1.85,0-3.36.85-4.55,2.55-1.19,1.7-1.78,3.9-1.78,6.59v16.85h-10.13v-34.01h10.13Z"/>
          <g>
            <path class="st13" d="M429.78,796.54h13.3l9.73,31.13,9.73-31.13h12.83l6.69,51.93h-10.66l-4.58-36.55-11.43,36.55h-5.08l-11.73-36.86-4.33,36.86h-10.84l6.38-51.93Z"/>
            <polygon class="st6" points="467.07 811.61 472.57 796.54 462.56 796.54 448.31 842.27 450.25 848.48 455.34 848.48 467.07 811.61"/>
            <polygon class="st10" points="438.57 811.61 433.07 796.54 443.08 796.54 457.33 842.27 455.38 848.48 450.3 848.48 438.57 811.61"/>
            <polygon class="st0" points="472.57 796.54 466.83 812.75 471.4 848.48 482.06 848.48 475.37 796.54 472.57 796.54"/>
          </g>
        </g>
        <polygon class="st12" points="413.01 827.38 404.95 827.38 403.38 835.26 396.04 835.26 397.61 827.38 389.54 827.38 390.93 820.42 398.99 820.42 400.56 812.56 407.91 812.56 406.34 820.42 414.4 820.42 413.01 827.38"/>
      </g>
    </g>
  </g>
</svg>