<?xml version="1.0" standalone="no"?>
<!DOCTYPE svg PUBLIC "-//W3C//DTD SVG 20010904//EN"
 "http://www.w3.org/TR/2001/REC-SVG-20010904/DTD/svg10.dtd">
<svg version="1.0" xmlns="http://www.w3.org/2000/svg"
 width="534.000000pt" height="221.000000pt" viewBox="0 0 534.000000 221.000000"
 preserveAspectRatio="xMidYMid meet">

<g transform="translate(0.000000,221.000000) scale(0.100000,-0.100000)"
fill="#000000" stroke="none">
<path d="M1045 2178 c-91 -55 -345 -294 -345 -325 0 -31 24 -17 82 49 159 183
293 277 396 278 116 0 242 -112 242 -217 0 -59 -69 -272 -191 -589 l-51 -132
-82 -17 c-130 -28 -300 -73 -355 -94 l-51 -19 6 71 c17 208 61 451 88 490 8
12 30 42 47 67 129 180 160 243 135 268 -12 13 -19 11 -48 -9 -18 -13 -41 -33
-50 -44 -32 -37 -86 -150 -103 -215 -23 -85 -32 -97 -372 -506 -170 -206 -276
-339 -282 -355 -2 -6 3 -9 11 -7 29 7 361 396 520 611 44 59 82 107 85 107 2
0 2 -3 -1 -8 -4 -7 -25 -131 -40 -237 -3 -22 -9 -85 -13 -140 -5 -86 -9 -102
-27 -115 -45 -31 -65 -59 -79 -111 -37 -131 -69 -232 -105 -339 -50 -144 -58
-199 -38 -238 46 -90 185 -39 356 131 70 69 132 119 188 152 88 53 132 92 302
270 355 373 331 352 396 364 33 6 83 16 112 22 30 6 55 9 58 7 2 -2 -13 -29
-33 -59 -38 -57 -82 -153 -83 -180 0 -8 9 -25 20 -37 24 -25 76 -29 162 -11
89 18 363 117 538 194 91 41 199 87 240 103 41 17 156 66 255 110 99 43 290
128 425 187 261 115 256 112 248 120 -3 3 -52 -17 -109 -44 -289 -136 -840
-369 -1139 -481 -292 -110 -423 -149 -521 -157 -72 -5 -77 -5 -84 16 -7 23 26
97 86 191 l36 55 84 19 c152 33 288 90 369 155 68 55 106 98 167 191 31 47 70
105 86 130 17 25 78 94 136 153 58 59 109 117 114 129 10 27 0 56 -21 62 -68
21 -249 -10 -367 -63 -198 -88 -265 -139 -343 -256 -28 -44 -73 -129 -98 -190
-73 -176 -131 -293 -151 -303 -22 -11 -202 -46 -208 -41 -2 3 29 38 70 79 40
42 125 143 189 225 64 83 129 166 144 185 16 19 50 69 76 110 29 45 88 113
150 172 l101 97 -43 1 c-43 0 -50 -5 -320 -237 -307 -265 -319 -275 -603 -528
-112 -99 -199 -171 -195 -160 19 45 90 238 133 360 86 246 103 300 103 330 -1
70 -75 176 -152 216 -28 14 -57 19 -120 18 -74 0 -88 -4 -133 -31z m1749 -14
c9 -3 16 -11 16 -17 0 -6 -44 -54 -97 -107 -99 -96 -181 -192 -244 -285 -81
-119 -131 -174 -196 -218 -115 -75 -205 -115 -320 -141 l-61 -14 33 67 c19 37
56 122 83 189 28 67 64 144 81 170 36 57 127 148 194 196 123 87 441 187 511
160z m-733 -241 c-119 -190 -270 -387 -403 -524 l-73 -76 -164 -31 c-91 -17
-166 -30 -168 -28 -2 1 81 74 183 162 207 176 381 326 553 475 62 55 115 99
117 99 2 0 -18 -35 -45 -77z m-1154 -10 c-16 -30 -80 -133 -83 -133 -2 0 1 12
7 28 14 37 62 112 72 112 5 0 6 -3 4 -7z m547 -724 c-170 -174 -385 -385 -425
-416 -19 -15 -62 -41 -94 -58 -39 -20 -97 -68 -178 -147 -127 -126 -200 -172
-260 -166 l-32 3 1 80 c1 63 9 105 38 195 21 63 51 163 68 221 20 72 38 115
56 135 l27 29 5 -120 c6 -131 16 -165 54 -190 60 -40 157 -6 250 88 65 65 156
210 195 309 13 32 29 62 36 68 10 9 311 76 354 79 7 1 -36 -49 -95 -110z
m-311 9 c6 -17 -54 -136 -111 -221 -90 -135 -218 -223 -285 -198 -46 18 -58
58 -55 189 l3 117 65 23 c75 27 337 100 362 101 9 1 18 -5 21 -11z"/>
</g>
</svg>
